<svg width="505" height="159" viewBox="0 0 505 159" fill="none" xmlns="http://www.w3.org/2000/svg">
<path d="M79.4026 158H75.2151V109.633C75.2151 107.537 76.8257 105.924 78.9195 105.924C81.0133 105.924 82.6239 107.537 82.6239 109.633V158H79.4026ZM139.961 28.2143L134.807 23.0551L129.492 17.7347C127.56 15.9612 124.499 15.6388 122.245 17.251L110.165 25.9571C105.172 23.0551 99.8573 20.798 94.2202 19.3469L91.8043 4.67551C91.3211 1.93469 88.9052 0 86.3282 0H78.9195H71.5107C68.7727 0 66.3568 1.93469 66.0347 4.67551L63.4577 19.3469C57.8206 20.798 52.3445 23.0551 47.1906 26.1184L35.2722 17.7347C33.0173 16.1224 29.9572 16.4449 28.0245 18.3796L22.8705 23.5388L17.7166 28.698C15.7839 30.6327 15.4618 33.6959 17.0724 35.9531L25.7696 48.2061C22.8705 53.2041 20.7768 58.6857 19.3272 64.1673L4.67074 66.4245C1.93272 66.9082 0 69.3265 0 71.9061V79.3224V86.7388C0 89.4796 1.93272 91.898 4.67074 92.2204L19.4883 94.6388C20.9378 100.12 23.1927 105.441 26.2528 110.439L17.7166 122.531C16.106 124.788 16.4281 127.851 18.3609 129.786L23.5148 134.945L28.6687 140.104C30.6014 142.039 33.6616 142.361 35.9164 140.749L48.157 132.043C49.2844 132.688 50.4118 133.333 51.7003 133.978C52.0224 134.139 52.3445 134.3 52.6667 134.461C53.633 134.945 54.5994 135.429 55.5657 135.751C55.7268 135.912 56.0489 135.912 56.21 136.073C57.4985 136.557 58.6259 137.041 59.9144 137.363C59.9144 137.363 59.9144 137.363 60.0754 137.363C61.3639 137.847 62.6524 138.169 63.7798 138.492C64.5851 138.653 65.3904 138.814 66.1957 138.976V112.373C66.1957 107.537 64.1019 103.022 60.3976 99.9592C54.2773 94.6388 50.4118 86.7388 50.4118 77.8714C50.4118 67.2306 56.0489 57.8796 64.5851 52.7204C65.2294 52.398 66.0347 52.8816 66.0347 53.5265V70.2939C66.0347 75.2918 70.0612 79.3224 75.054 79.3224H82.6239C87.6167 79.3224 91.6432 75.2918 91.6432 70.2939V52.7204C91.6432 52.0755 92.4485 51.5918 92.9317 51.9143C102.434 56.751 108.877 66.5857 108.877 77.8714C108.877 87.0612 104.528 95.2837 97.9246 100.765C93.8981 103.99 91.4822 108.665 91.4822 113.824V139.298C92.4485 139.137 93.5759 138.814 94.5423 138.492C95.6697 138.169 96.9582 137.847 98.0856 137.363C98.4077 137.202 98.7299 137.202 99.052 137.041C99.8573 136.718 100.663 136.396 101.307 136.235C101.951 136.073 102.434 135.751 103.078 135.429C103.401 135.267 103.884 135.106 104.206 134.945C105.011 134.622 105.817 134.139 106.622 133.816C107.749 133.333 108.716 132.688 109.843 132.043L121.923 140.749C124.177 142.361 127.238 142.039 129.17 140.104L134.324 134.945L139.478 129.786C141.411 127.851 141.733 124.788 140.122 122.531L132.069 110.278C134.968 105.28 137.223 99.9592 138.673 94.3163L153.329 91.7367C156.067 91.2531 158 88.8347 158 86.2551V78.8388V71.4224C158 68.6816 156.067 66.2633 153.329 65.9408L138.512 63.5224C137.062 58.0408 134.807 52.7204 131.908 47.5612L140.606 35.4694C142.216 33.2122 141.894 30.149 139.961 28.2143Z" fill="black"/>
<path d="M202.493 158.419C195.379 158.419 190 153.561 190 145.701C190 137.876 195.379 133 202.493 133C207.698 133 211.966 135.637 213.823 140.062L209.954 141.537C208.67 138.57 205.859 136.869 202.493 136.869C197.808 136.869 194.147 140.131 194.147 145.701C194.147 151.305 197.808 154.55 202.493 154.55C205.859 154.55 208.67 152.867 209.954 149.9L213.823 151.375C211.967 155.799 207.698 158.419 202.493 158.419ZM221.924 154.376H230.097V158.089H217.777V133.347H221.924V154.376ZM233.669 158.089V133.347H237.816V158.089H233.669ZM271.354 158.089H267.242L265.611 138.552L258.515 158.089H255.912L248.85 138.586L247.202 158.089H243.073L245.051 133.347H250.829L257.196 150.836L263.616 133.347H269.394L271.354 158.089ZM292.85 158.089L290.889 152.589H280.08L278.136 158.089H273.851L282.96 133.347H288.009L297.119 158.089H292.85ZM281.346 149.032H289.64L285.493 137.338L281.346 149.032ZM314.276 133.347V137.042H308.169V158.09H304.039V137.042H297.914V133.347H314.276ZM331.626 137.042H322.013V143.896H330.515V147.557H322.013V154.376H331.626V158.089H317.814V133.346H331.626V137.042ZM355.619 158.419C348.505 158.419 343.126 153.561 343.126 145.701C343.126 137.876 348.504 133 355.619 133C360.824 133 365.092 135.637 366.949 140.062L363.08 141.537C361.796 138.57 358.985 136.869 355.619 136.869C350.934 136.869 347.273 140.131 347.273 145.701C347.273 151.305 350.934 154.55 355.619 154.55C358.985 154.55 361.796 152.867 363.08 149.9L366.949 151.375C365.092 155.799 360.824 158.419 355.619 158.419ZM381.678 158.419C374.564 158.419 369.185 153.544 369.185 145.701C369.185 137.876 374.564 133 381.678 133C388.774 133 394.153 137.876 394.153 145.701C394.153 153.544 388.775 158.419 381.678 158.419ZM381.678 154.567C386.363 154.567 390.024 151.323 390.024 145.701C390.024 140.131 386.363 136.869 381.678 136.869C376.993 136.869 373.332 140.131 373.332 145.701C373.332 151.323 376.993 154.567 381.678 154.567ZM415.459 133.347H419.606V158.089H414.956L402.81 139.212V158.089H398.698V133.347H403.296L415.459 152.104V133.347ZM439.505 133.347V137.042H433.398V158.09H429.268V137.042H423.143V133.347H439.505ZM456.282 158.089L449.862 147.054H447.19V158.089H443.043V133.347H451.632C456.993 133.347 459.353 136.556 459.353 140.53C459.353 143.983 457.306 146.308 454.026 146.898L461.158 158.089L456.282 158.089ZM447.19 136.852V143.983H451.025C454.061 143.983 455.362 142.561 455.362 140.444C455.362 138.344 454.061 136.852 451.025 136.852H447.19ZM475.661 158.419C468.547 158.419 463.168 153.544 463.168 145.701C463.168 137.876 468.547 133 475.661 133C482.758 133 488.137 137.876 488.137 145.701C488.137 153.544 482.758 158.419 475.661 158.419ZM475.661 154.567C480.346 154.567 484.007 151.323 484.007 145.701C484.007 140.131 480.346 136.869 475.661 136.869C470.976 136.869 467.315 140.131 467.315 145.701C467.315 151.323 470.976 154.567 475.661 154.567ZM496.828 154.376H505V158.089H492.681V133.347H496.828V154.376Z" fill="black"/>
<path d="M285.327 109.389H262.547V68.1865H212.78V109.389H190V3.33679H212.78V48.3109H262.547V3.33679H285.327V109.389ZM352.216 112L298.676 3.48187H323.922L352.216 62.0933L380.654 3.48187H406.046L352.216 112ZM446.817 0L505 109.389H479.899L471.483 93.1399H422.006L413.881 109.389H388.634L446.817 0ZM460.456 73.5544L446.817 45.8446L433.323 73.5544H460.456Z" fill="black"/>
</svg>
