<svg width="158" height="158" viewBox="0 0 158 158" fill="#0077db" xmlns="http://www.w3.org/2000/svg">
<path d="M79.4026 158H75.2151V109.633C75.2151 107.537 76.8257 105.924 78.9195 105.924C81.0133 105.924 82.6239 107.537 82.6239 109.633V158H79.4026ZM139.961 28.2143L134.807 23.0551L129.492 17.7347C127.56 15.9612 124.499 15.6388 122.245 17.251L110.165 25.9571C105.172 23.0551 99.8573 20.798 94.2202 19.3469L91.8043 4.67551C91.3211 1.93469 88.9052 0 86.3282 0H78.9195H71.5107C68.7727 0 66.3568 1.93469 66.0347 4.67551L63.4577 19.3469C57.8206 20.798 52.3445 23.0551 47.1906 26.1184L35.2722 17.7347C33.0173 16.1224 29.9572 16.4449 28.0245 18.3796L22.8705 23.5388L17.7166 28.698C15.7839 30.6327 15.4618 33.6959 17.0724 35.9531L25.7696 48.2061C22.8705 53.2041 20.7768 58.6857 19.3272 64.1673L4.67074 66.4245C1.93272 66.9082 0 69.3265 0 71.9061V79.3224V86.7388C0 89.4796 1.93272 91.898 4.67074 92.2204L19.4883 94.6388C20.9378 100.12 23.1927 105.441 26.2528 110.439L17.7166 122.531C16.106 124.788 16.4281 127.851 18.3609 129.786L23.5148 134.945L28.6687 140.104C30.6014 142.039 33.6616 142.361 35.9164 140.749L48.157 132.043C49.2844 132.688 50.4118 133.333 51.7003 133.978C52.0224 134.139 52.3445 134.3 52.6667 134.461C53.633 134.945 54.5994 135.429 55.5658 135.751C55.7268 135.912 56.0489 135.912 56.21 136.073C57.4985 136.557 58.6259 137.041 59.9144 137.363C59.9144 137.363 59.9144 137.363 60.0754 137.363C61.3639 137.847 62.6524 138.169 63.7798 138.492C64.5851 138.653 65.3904 138.814 66.1957 138.975V112.373C66.1957 107.537 64.1019 103.022 60.3976 99.9592C54.2773 94.6388 50.4118 86.7388 50.4118 77.8714C50.4118 67.2306 56.0489 57.8796 64.5851 52.7204C65.2294 52.398 66.0347 52.8816 66.0347 53.5265V70.2939C66.0347 75.2918 70.0612 79.3224 75.054 79.3224H82.6239C87.6167 79.3224 91.6432 75.2918 91.6432 70.2939V52.7204C91.6432 52.0755 92.4485 51.5918 92.9317 51.9143C102.434 56.751 108.877 66.5857 108.877 77.8714C108.877 87.0612 104.528 95.2837 97.9246 100.765C93.8981 103.99 91.4822 108.665 91.4822 113.824V139.298C92.4485 139.137 93.5759 138.814 94.5423 138.492C95.6697 138.169 96.9582 137.847 98.0856 137.363C98.4078 137.202 98.7299 137.202 99.052 137.041C99.8573 136.718 100.663 136.396 101.307 136.235C101.951 136.073 102.434 135.751 103.078 135.429C103.401 135.267 103.884 135.106 104.206 134.945C105.011 134.622 105.817 134.139 106.622 133.816C107.749 133.333 108.716 132.688 109.843 132.043L121.923 140.749C124.177 142.361 127.238 142.039 129.17 140.104L134.324 134.945L139.478 129.786C141.411 127.851 141.733 124.788 140.122 122.531L132.069 110.278C134.968 105.28 137.223 99.9592 138.673 94.3163L153.329 91.7367C156.067 91.2531 158 88.8347 158 86.2551V78.8388V71.4224C158 68.6816 156.067 66.2633 153.329 65.9408L138.512 63.5224C137.062 58.0408 134.807 52.7204 131.908 47.5612L140.606 35.4694C142.216 33.2122 141.894 30.149 139.961 28.2143Z"/>
</svg>
