<?xml version="1.0" standalone="no"?>
<!DOCTYPE svg PUBLIC "-//W3C//DTD SVG 20010904//EN"
 "http://www.w3.org/TR/2001/REC-SVG-20010904/DTD/svg10.dtd">
<svg version="1.0" xmlns="http://www.w3.org/2000/svg"
 width="700.000000pt" height="700.000000pt" viewBox="0 0 700.000000 700.000000"
 preserveAspectRatio="xMidYMid meet">
<metadata>
Created by potrace 1.14, written by Peter Selinger 2001-2017
</metadata>
<g transform="translate(0.000000,700.000000) scale(0.100000,-0.100000)"
fill="#000000" stroke="none">
<path d="M3086 6985 c-82 -29 -147 -107 -161 -195 -3 -19 -12 -71 -20 -115 -8
-44 -17 -93 -20 -110 -2 -16 -7 -39 -9 -50 -3 -18 -11 -67 -22 -135 -3 -14 -9
-47 -14 -75 -5 -27 -12 -63 -15 -80 -14 -84 -3 -76 -165 -128 -198 -64 -402
-153 -531 -233 l-37 -23 -30 22 c-17 12 -38 28 -49 35 -10 7 -123 86 -250 176
-152 107 -249 168 -278 176 -60 17 -136 7 -189 -24 -22 -13 -156 -141 -297
-283 -240 -241 -258 -262 -273 -312 -34 -115 -22 -150 121 -352 60 -85 148
-208 194 -274 47 -66 88 -125 92 -131 4 -6 -18 -58 -47 -115 -73 -140 -185
-418 -201 -500 -9 -46 -30 -101 -39 -104 -6 -2 -29 -6 -51 -9 -22 -3 -69 -9
-105 -15 -36 -6 -87 -13 -115 -17 -27 -3 -52 -8 -55 -9 -3 -2 -33 -6 -65 -10
-33 -3 -67 -8 -75 -10 -8 -3 -33 -7 -55 -10 -166 -24 -222 -47 -269 -108 -54
-71 -56 -90 -56 -492 1 -367 1 -372 24 -421 44 -92 99 -126 241 -149 137 -22
134 -21 275 -45 148 -25 155 -26 245 -40 39 -6 73 -14 76 -18 4 -4 16 -41 28
-82 46 -158 142 -382 236 -549 35 -62 35 -64 19 -90 -17 -25 -262 -372 -336
-476 -55 -76 -72 -126 -65 -194 2 -32 13 -74 24 -95 25 -50 517 -542 568 -569
49 -25 154 -32 201 -12 25 10 428 288 489 338 6 4 32 23 59 41 l49 34 121 -63
c199 -105 425 -189 614 -229 l62 -14 1 37 c0 20 0 304 1 631 0 644 -1 654 -56
790 -38 94 -91 164 -233 305 -206 207 -315 393 -373 639 -89 378 -6 780 224
1086 64 86 182 205 246 250 19 13 40 29 46 35 6 6 32 22 57 35 45 24 47 24 64
7 17 -16 18 -49 19 -420 0 -221 4 -418 8 -437 30 -134 130 -244 264 -292 50
-18 84 -21 267 -22 116 -1 232 2 259 6 109 16 222 94 280 193 53 89 56 124 56
576 0 512 -12 480 147 388 120 -69 282 -220 376 -352 92 -128 185 -336 212
-472 3 -16 7 -41 10 -55 37 -192 18 -423 -51 -630 -80 -237 -207 -421 -427
-614 -145 -128 -212 -239 -264 -437 -3 -13 -7 -302 -9 -643 l-3 -618 22 5
c211 48 444 136 684 258 l112 57 283 -204 c303 -217 333 -233 425 -220 24 3
60 13 79 22 19 9 152 134 295 277 283 282 300 306 300 404 0 29 -8 71 -19 95
-10 24 -100 166 -199 316 l-181 274 72 141 c98 194 136 287 192 472 15 50 29
92 30 94 2 2 50 12 106 22 57 9 157 27 223 39 66 12 134 23 150 25 17 3 53 9
80 15 28 5 64 12 80 15 17 3 35 7 40 8 28 6 104 59 121 84 54 81 53 76 54 481
0 377 -1 377 -24 427 -29 61 -60 97 -103 119 -27 13 -183 43 -513 96 -36 5
-76 12 -90 15 -14 2 -42 7 -64 9 -54 7 -76 16 -76 29 0 16 -50 171 -90 277
-17 47 -67 158 -111 247 -43 89 -79 165 -79 168 0 4 51 77 113 163 313 434
311 431 309 518 -2 99 -20 123 -304 407 -293 292 -300 297 -416 294 -79 -3
-91 -9 -262 -132 -397 -288 -411 -297 -423 -287 -14 11 -211 111 -277 140 -93
41 -168 69 -270 101 -141 44 -150 48 -151 68 0 10 -2 27 -5 38 -2 11 -6 40
-10 65 -3 25 -8 47 -9 50 -2 3 -7 33 -10 65 -4 33 -9 63 -11 66 -2 4 -6 26 -9
50 -3 24 -7 55 -10 69 -3 14 -8 41 -11 60 -32 204 -51 259 -107 306 -74 63
-76 63 -487 63 -295 0 -383 -3 -414 -14z"/>
<path d="M3445 2300 c-38 -12 -90 -62 -103 -99 -7 -19 -10 -416 -10 -1115 l0
-1086 164 0 164 0 0 1090 c0 1065 0 1092 -20 1129 -34 67 -121 103 -195 81z"/>
</g>
</svg>
